<?xml version="1.0" encoding="utf-8"?>
<!-- Generator: Adobe Illustrator 18.1.1, SVG Export Plug-In . SVG Version: 6.00 Build 0)  -->
<!DOCTYPE svg PUBLIC "-//W3C//DTD SVG 1.1//EN" "http://www.w3.org/Graphics/SVG/1.1/DTD/svg11.dtd">
<svg version="1.1" id="Layer_1" xmlns="http://www.w3.org/2000/svg" xmlns:xlink="http://www.w3.org/1999/xlink" x="0px" y="0px"
	 viewBox="0 0 136.1 11.1" enable-background="new 0 0 136.1 11.1" xml:space="preserve">
<g>
	<path d="M0,10.8V0.2h7.6v2H2.3v2.3h5.2v2H2.3v4.4H0z"/>
	<path d="M14,11c-0.8,0-1.5-0.1-2.1-0.3c-0.6-0.2-1.1-0.5-1.5-0.9C9.9,9.4,9.6,8.9,9.4,8.4C9.2,7.9,9.1,7.3,9.1,6.6V0.2h2.3v6.3
		c0,0.7,0.2,1.4,0.6,1.8C12.5,8.8,13.1,9,14,9s1.5-0.2,1.9-0.7s0.6-1.1,0.6-1.8V0.2h2.3v6.4c0,0.7-0.1,1.3-0.3,1.8
		c-0.2,0.5-0.5,1-0.9,1.4c-0.4,0.4-0.9,0.7-1.5,0.9S14.8,11,14,11z"/>
	<path d="M23.3,10.8V2.2h-3.1v-2h8.5v2h-3.1v8.7H23.3z"/>
	<path d="M35,11c-0.8,0-1.5-0.1-2.1-0.3c-0.6-0.2-1.1-0.5-1.5-0.9c-0.4-0.4-0.7-0.9-0.9-1.4c-0.2-0.5-0.3-1.1-0.3-1.8V0.2h2.3v6.3
		c0,0.7,0.2,1.4,0.6,1.8C33.5,8.8,34.2,9,35,9s1.5-0.2,1.9-0.7s0.6-1.1,0.6-1.8V0.2h2.3v6.4c0,0.7-0.1,1.3-0.3,1.8
		c-0.2,0.5-0.5,1-0.9,1.4c-0.4,0.4-0.9,0.7-1.5,0.9S35.8,11,35,11z"/>
	<path d="M47.9,10.8l-2.1-3.8h-1.7v3.8h-2.3V0.2h5c0.6,0,1.1,0.1,1.5,0.3c0.4,0.2,0.8,0.4,1.1,0.7c0.3,0.3,0.5,0.7,0.7,1.1
		s0.2,0.9,0.2,1.4c0,0.5-0.1,0.9-0.2,1.2S50,5.5,49.8,5.8c-0.2,0.3-0.5,0.5-0.8,0.6c-0.3,0.2-0.6,0.3-0.9,0.3l2.4,4.1H47.9z
		 M46.6,5.1c0.5,0,0.8-0.1,1.1-0.4c0.3-0.3,0.5-0.6,0.5-1.1c0-0.4-0.2-0.8-0.5-1.1S47,2.2,46.6,2.2h-2.4v2.9H46.6z"/>
	<path d="M52.2,10.8V0.2h7.6v2h-5.3v2.3h5.2v2h-5.2v2.4h5.3v2H52.2z"/>
	<path d="M65.6,10.8V0.2h2.3v10.7H65.6z"/>
	<path d="M77.4,10.8l-5.1-7v7H70V0.2h2.3l4.9,6.7V0.2h2.3v10.7H77.4z"/>
	<path d="M85.5,11c-1,0-1.9-0.2-2.7-0.5c-0.7-0.3-1.4-0.7-1.9-1.2l1.2-1.7c0.4,0.4,0.8,0.7,1.4,1s1.2,0.4,2,0.4
		c0.6,0,1.1-0.1,1.4-0.4c0.3-0.2,0.5-0.5,0.5-0.8c0-0.3-0.2-0.5-0.5-0.7c-0.3-0.2-0.7-0.3-1.1-0.4c-0.5-0.1-0.9-0.2-1.5-0.4
		s-1-0.3-1.5-0.5s-0.8-0.6-1.1-1c-0.3-0.4-0.5-0.9-0.5-1.6c0-0.4,0.1-0.9,0.3-1.3c0.2-0.4,0.5-0.7,0.8-1c0.3-0.3,0.8-0.5,1.3-0.7
		C84.1,0.1,84.7,0,85.3,0c1.7,0,3.1,0.5,4.2,1.5l-1.3,1.7c-0.4-0.4-0.9-0.7-1.5-0.9S85.7,2,85.1,2c-0.5,0-0.9,0.1-1.1,0.3
		c-0.3,0.2-0.4,0.5-0.4,0.8c0,0.3,0.2,0.5,0.5,0.6c0.3,0.2,0.7,0.3,1.1,0.4c0.5,0.1,0.9,0.2,1.5,0.4c0.5,0.1,1,0.3,1.5,0.6
		c0.5,0.2,0.8,0.6,1.1,1c0.3,0.4,0.5,0.9,0.5,1.6c0,0.5-0.1,0.9-0.3,1.4c-0.2,0.4-0.4,0.8-0.8,1.1c-0.4,0.3-0.8,0.5-1.3,0.7
		C86.8,11,86.2,11,85.5,11z"/>
	<path d="M91.3,10.8V0.2h2.3v10.7H91.3z"/>
	<path d="M100.8,11.1c-0.8,0-1.5-0.1-2.2-0.4c-0.7-0.3-1.3-0.6-1.8-1.1s-0.9-1.1-1.2-1.7c-0.3-0.7-0.4-1.4-0.4-2.3
		c0-0.8,0.1-1.6,0.4-2.3c0.3-0.7,0.7-1.3,1.2-1.7s1.1-0.8,1.8-1.1C99.3,0.1,100,0,100.8,0c0.6,0,1.1,0.1,1.5,0.2
		c0.5,0.1,0.9,0.3,1.2,0.5c0.4,0.2,0.7,0.5,1,0.8s0.5,0.6,0.7,0.9l-1.9,1c-0.2-0.4-0.6-0.7-1-1c-0.4-0.3-0.9-0.4-1.5-0.4
		c-0.5,0-0.9,0.1-1.3,0.3c-0.4,0.2-0.8,0.4-1.1,0.7c-0.3,0.3-0.5,0.7-0.7,1.1c-0.2,0.4-0.2,0.9-0.2,1.4s0.1,1,0.2,1.4
		c0.2,0.4,0.4,0.8,0.7,1.1c0.3,0.3,0.7,0.6,1.1,0.7C99.9,9,100.3,9,100.8,9c0.5,0,0.9-0.1,1.3-0.3c0.4-0.2,0.7-0.4,0.9-0.6V6.9h-2.8
		v-2h5.1V9c-0.5,0.6-1.2,1.1-2,1.5C102.6,10.9,101.8,11.1,100.8,11.1z"/>
	<path d="M114.5,10.8V6.4h-5v4.5h-2.3V0.2h2.3v4.2h5V0.2h2.3v10.7H114.5z"/>
	<path d="M121.3,10.8V2.2h-3.1v-2h8.5v2h-3.1v8.7H121.3z"/>
	<path d="M131.9,11c-1,0-1.9-0.2-2.7-0.5c-0.7-0.3-1.4-0.7-1.9-1.2l1.2-1.7c0.4,0.4,0.8,0.7,1.4,1s1.2,0.4,2,0.4
		c0.6,0,1.1-0.1,1.4-0.4c0.3-0.2,0.5-0.5,0.5-0.8c0-0.3-0.2-0.5-0.5-0.7c-0.3-0.2-0.7-0.3-1.1-0.4c-0.5-0.1-0.9-0.2-1.5-0.4
		s-1-0.3-1.5-0.5s-0.8-0.6-1.1-1c-0.3-0.4-0.5-0.9-0.5-1.6c0-0.4,0.1-0.9,0.3-1.3c0.2-0.4,0.5-0.7,0.8-1c0.3-0.3,0.8-0.5,1.3-0.7
		c0.5-0.2,1.1-0.3,1.7-0.3c1.7,0,3.1,0.5,4.2,1.5l-1.3,1.7c-0.4-0.4-0.9-0.7-1.5-0.9S132.1,2,131.5,2c-0.5,0-0.9,0.1-1.1,0.3
		c-0.3,0.2-0.4,0.5-0.4,0.8c0,0.3,0.2,0.5,0.5,0.6c0.3,0.2,0.7,0.3,1.1,0.4c0.5,0.1,0.9,0.2,1.5,0.4c0.5,0.1,1,0.3,1.5,0.6
		c0.5,0.2,0.8,0.6,1.1,1c0.3,0.4,0.5,0.9,0.5,1.6c0,0.5-0.1,0.9-0.3,1.4c-0.2,0.4-0.4,0.8-0.8,1.1c-0.4,0.3-0.8,0.5-1.3,0.7
		C133.2,11,132.6,11,131.9,11z"/>
</g>
</svg>
